<svg xmlns="http://www.w3.org/2000/svg" viewBox="0 0 256 256" width="256" height="256">
  <rect x="0" y="0" width="256" height="256" rx="48" ry="48" fill="#0d9488"/>
  <g transform="translate(48, 48) scale(6.667)" fill="none" stroke="white" stroke-width="2" stroke-linecap="round" stroke-linejoin="round">
    <path d="M6 22a2 2 0 0 1-2-2V4a2 2 0 0 1 2-2h8a2.4 2.4 0 0 1 1.704.706l3.588 3.588A2.4 2.4 0 0 1 20 8v12a2 2 0 0 1-2 2z"/>
    <path d="M14 2v5a1 1 0 0 0 1 1h5"/>
    <circle cx="11.5" cy="14.5" r="2.5"/>
    <path d="M13.3 16.3 15 18"/>
  </g>
</svg>
